<?xml version="1.0" encoding="UTF-8" standalone="no"?>
<svg
   xmlns:dc="http://purl.org/dc/elements/1.1/"
   xmlns:cc="http://creativecommons.org/ns#"
   xmlns:rdf="http://www.w3.org/1999/02/22-rdf-syntax-ns#"
   xmlns:svg="http://www.w3.org/2000/svg"
   xmlns="http://www.w3.org/2000/svg"
   xmlns:sodipodi="http://sodipodi.sourceforge.net/DTD/sodipodi-0.dtd"
   xmlns:inkscape="http://www.inkscape.org/namespaces/inkscape"
   version="1.1"
   id="svg2"
   xml:space="preserve"
   width="525.71997"
   height="395.07999"
   viewBox="0 0 525.71997 395.07999"
   sodipodi:docname="logo_ubs_iut.svg"
   inkscape:version="1.0.1 (0767f8302a, 2020-10-17)"><metadata
     id="metadata8"><rdf:RDF><cc:Work
         rdf:about=""><dc:format>image/svg+xml</dc:format><dc:type
           rdf:resource="http://purl.org/dc/dcmitype/StillImage" /><dc:title></dc:title></cc:Work></rdf:RDF></metadata><defs
     id="defs6" /><sodipodi:namedview
     pagecolor="#ffffff"
     bordercolor="#666666"
     borderopacity="1"
     objecttolerance="10"
     gridtolerance="10"
     guidetolerance="10"
     inkscape:pageopacity="0"
     inkscape:pageshadow="2"
     inkscape:window-width="1920"
     inkscape:window-height="997"
     id="namedview4"
     showgrid="false"
     inkscape:zoom="2.283082"
     inkscape:cx="262.85999"
     inkscape:cy="162.49964"
     inkscape:window-x="0"
     inkscape:window-y="868"
     inkscape:window-maximized="1"
     inkscape:current-layer="g10" /><g
     id="g10"
     inkscape:groupmode="layer"
     inkscape:label="ink_ext_XXXXXX"
     transform="matrix(1.3333333,0,0,-1.3333333,0,395.08)"><path
       d="m 171.408,244.425 c -0.918,-2.849 -1.896,-5.77 -2.94,-8.764 -0.271,-0.773 -0.627,-1.314 -1.071,-1.622 -0.446,-0.309 -0.919,-0.464 -1.421,-0.464 -0.561,0 -1.047,0.15 -1.463,0.448 -0.415,0.3 -0.757,0.846 -1.027,1.638 -1.025,2.973 -1.987,5.867 -2.884,8.677 -0.898,2.811 -1.733,5.587 -2.506,8.33 -0.115,0.385 -0.13,0.734 -0.044,1.042 0.088,0.309 0.231,0.574 0.437,0.797 0.202,0.223 0.447,0.396 0.736,0.522 0.29,0.125 0.581,0.188 0.871,0.188 0.385,0 0.752,-0.121 1.101,-0.362 0.347,-0.242 0.597,-0.614 0.752,-1.116 0.618,-2.144 1.265,-4.36 1.942,-6.649 0.675,-2.288 1.409,-4.592 2.201,-6.909 0.811,2.336 1.57,4.654 2.274,6.953 0.706,2.299 1.368,4.529 1.984,6.692 0.136,0.483 0.363,0.835 0.682,1.058 0.319,0.221 0.671,0.333 1.057,0.333 0.29,0 0.57,-0.058 0.84,-0.174 0.27,-0.116 0.502,-0.275 0.696,-0.479 0.193,-0.201 0.328,-0.453 0.405,-0.752 0.078,-0.299 0.057,-0.623 -0.058,-0.971 -0.791,-2.762 -1.647,-5.568 -2.564,-8.416"
       style="fill:#7a1d90;fill-opacity:1;fill-rule:nonzero;stroke:none;stroke-width:0.1"
       id="path14" /><path
       d="m 182.547,239.978 h -2.115 c -0.868,0 -1.472,-0.155 -1.811,-0.464 -0.337,-0.309 -0.506,-0.705 -0.506,-1.187 v -0.203 c 0,-0.542 0.174,-0.956 0.522,-1.245 0.348,-0.291 0.898,-0.436 1.65,-0.436 0.677,0 1.223,0.183 1.638,0.55 0.415,0.368 0.622,0.938 0.622,1.71 z m 4.68,-5.939 c -0.358,-0.251 -0.836,-0.377 -1.435,-0.377 -0.385,0 -0.733,0.063 -1.042,0.188 -0.31,0.126 -0.56,0.265 -0.754,0.42 -0.192,0.135 -0.386,0.338 -0.579,0.609 -0.56,-0.483 -1.202,-0.807 -1.927,-0.972 -0.724,-0.163 -1.405,-0.245 -2.042,-0.245 -1.758,0 -3.067,0.41 -3.925,1.231 -0.861,0.821 -1.289,1.917 -1.289,3.288 v 0.203 c 0,1.371 0.486,2.448 1.462,3.23 0.975,0.783 2.4,1.174 4.273,1.174 h 2.578 v 0.551 c 0,0.85 -0.143,1.501 -0.434,1.955 -0.29,0.454 -0.878,0.682 -1.767,0.682 -0.618,0 -1.126,-0.065 -1.521,-0.189 -0.397,-0.126 -0.758,-0.276 -1.086,-0.449 -0.483,-0.251 -0.924,-0.304 -1.319,-0.16 -0.395,0.145 -0.695,0.377 -0.897,0.696 -0.204,0.318 -0.276,0.68 -0.218,1.086 0.059,0.405 0.309,0.753 0.753,1.043 0.618,0.406 1.348,0.685 2.187,0.84 0.84,0.154 1.647,0.232 2.42,0.232 1.042,0 1.931,-0.121 2.664,-0.362 0.734,-0.243 1.333,-0.613 1.796,-1.115 0.464,-0.503 0.803,-1.144 1.015,-1.927 0.213,-0.783 0.318,-1.714 0.318,-2.796 v -4.839 c 0,-0.502 0.074,-0.85 0.217,-1.043 0.147,-0.193 0.325,-0.386 0.538,-0.579 0.153,-0.135 0.284,-0.295 0.391,-0.478 0.106,-0.183 0.16,-0.41 0.16,-0.68 0,-0.561 -0.181,-0.967 -0.537,-1.217"
       style="fill:#7a1d90;fill-opacity:1;fill-rule:nonzero;stroke:none;stroke-width:0.1"
       id="path16" /><path
       d="m 201.525,234.227 c -0.387,-0.377 -0.852,-0.565 -1.392,-0.565 -0.542,0 -0.999,0.188 -1.376,0.565 -0.377,0.376 -0.564,0.835 -0.564,1.376 v 7.533 c 0,0.289 -0.03,0.574 -0.088,0.854 -0.058,0.28 -0.159,0.521 -0.304,0.724 -0.144,0.204 -0.352,0.367 -0.622,0.493 -0.272,0.126 -0.618,0.189 -1.044,0.189 -0.521,0 -0.984,-0.107 -1.391,-0.319 -0.405,-0.213 -0.744,-0.502 -1.013,-0.869 v -8.605 c 0,-0.541 -0.189,-1 -0.565,-1.376 -0.377,-0.377 -0.837,-0.565 -1.376,-0.565 -0.56,0 -1.029,0.188 -1.405,0.565 -0.378,0.376 -0.566,0.835 -0.566,1.376 v 8.894 c 0,0.502 -0.086,0.849 -0.26,1.044 -0.174,0.192 -0.377,0.395 -0.61,0.608 -0.154,0.116 -0.28,0.265 -0.375,0.449 -0.098,0.183 -0.146,0.409 -0.146,0.681 0,0.56 0.185,0.965 0.551,1.217 0.367,0.25 0.831,0.376 1.39,0.376 0.309,0 0.623,-0.048 0.943,-0.145 0.317,-0.097 0.612,-0.251 0.882,-0.464 0.252,-0.192 0.474,-0.434 0.667,-0.723 0.522,0.482 1.139,0.858 1.855,1.129 0.714,0.27 1.545,0.406 2.491,0.406 0.928,0 1.7,-0.136 2.319,-0.406 0.617,-0.271 1.119,-0.642 1.506,-1.115 0.386,-0.473 0.662,-1.048 0.826,-1.724 0.164,-0.676 0.246,-1.42 0.246,-2.231 v -7.996 c 0,-0.541 -0.194,-1 -0.579,-1.376"
       style="fill:#7a1d90;fill-opacity:1;fill-rule:nonzero;stroke:none;stroke-width:0.1"
       id="path18" /><path
       d="m 216.879,234.227 c -0.388,-0.377 -0.85,-0.565 -1.39,-0.565 -0.541,0 -1,0.188 -1.377,0.565 -0.375,0.376 -0.565,0.835 -0.565,1.376 v 7.533 c 0,0.289 -0.029,0.574 -0.087,0.854 -0.057,0.28 -0.159,0.521 -0.304,0.724 -0.146,0.204 -0.353,0.367 -0.624,0.493 -0.269,0.126 -0.618,0.189 -1.042,0.189 -0.522,0 -0.986,-0.107 -1.39,-0.319 -0.406,-0.213 -0.745,-0.502 -1.014,-0.869 v -8.605 c 0,-0.541 -0.189,-1 -0.565,-1.376 -0.377,-0.377 -0.836,-0.565 -1.376,-0.565 -0.561,0 -1.03,0.188 -1.406,0.565 -0.376,0.376 -0.566,0.835 -0.566,1.376 v 8.894 c 0,0.502 -0.086,0.849 -0.259,1.044 -0.175,0.192 -0.378,0.395 -0.609,0.608 -0.153,0.116 -0.28,0.265 -0.376,0.449 -0.098,0.183 -0.146,0.409 -0.146,0.681 0,0.56 0.183,0.965 0.551,1.217 0.367,0.25 0.829,0.376 1.39,0.376 0.309,0 0.623,-0.048 0.942,-0.145 0.32,-0.097 0.613,-0.251 0.884,-0.464 0.251,-0.192 0.472,-0.434 0.667,-0.723 0.521,0.482 1.138,0.858 1.853,1.129 0.714,0.27 1.545,0.406 2.493,0.406 0.926,0 1.697,-0.136 2.316,-0.406 0.618,-0.271 1.12,-0.642 1.507,-1.115 0.387,-0.473 0.661,-1.048 0.825,-1.724 0.164,-0.676 0.246,-1.42 0.246,-2.231 v -7.996 c 0,-0.541 -0.193,-1 -0.578,-1.376"
       style="fill:#7a1d90;fill-opacity:1;fill-rule:nonzero;stroke:none;stroke-width:0.1"
       id="path20" /><path
       d="m 227.569,245.367 c -0.348,0.444 -0.91,0.666 -1.68,0.666 -0.774,0 -1.348,-0.222 -1.725,-0.666 -0.375,-0.445 -0.564,-1.082 -0.564,-1.913 v -0.375 h 4.49 v 0.375 c 0,0.831 -0.173,1.468 -0.521,1.913 z m 3.897,-4.81 c -0.262,-0.271 -0.575,-0.405 -0.942,-0.405 H 223.6 v -0.551 c 0,-0.869 0.198,-1.545 0.595,-2.028 0.394,-0.482 0.998,-0.724 1.809,-0.724 0.714,0 1.31,0.053 1.781,0.159 0.475,0.106 0.962,0.265 1.464,0.478 0.386,0.154 0.769,0.135 1.144,-0.058 0.378,-0.193 0.624,-0.502 0.74,-0.927 0.135,-0.445 0.124,-0.836 -0.029,-1.173 -0.156,-0.339 -0.416,-0.585 -0.783,-0.739 -0.811,-0.368 -1.598,-0.613 -2.361,-0.739 -0.762,-0.125 -1.492,-0.188 -2.187,-0.188 -1.121,0 -2.068,0.174 -2.84,0.521 -0.773,0.348 -1.401,0.812 -1.883,1.39 -0.482,0.581 -0.831,1.252 -1.042,2.014 -0.213,0.763 -0.318,1.57 -0.318,2.42 v 2.694 c 0,0.849 0.119,1.662 0.361,2.433 0.241,0.773 0.612,1.449 1.116,2.029 0.501,0.579 1.134,1.042 1.897,1.391 0.761,0.347 1.676,0.521 2.738,0.521 1.101,0 2.036,-0.17 2.81,-0.507 0.773,-0.338 1.395,-0.797 1.869,-1.376 0.472,-0.579 0.82,-1.251 1.042,-2.014 0.221,-0.763 0.334,-1.56 0.334,-2.39 v -1.246 c 0,-0.386 -0.13,-0.715 -0.391,-0.985"
       style="fill:#7a1d90;fill-opacity:1;fill-rule:nonzero;stroke:none;stroke-width:0.1"
       id="path22" /><path
       d="m 243.764,236.24 c -0.347,-0.598 -0.801,-1.091 -1.362,-1.477 -0.559,-0.387 -1.212,-0.666 -1.955,-0.84 -0.745,-0.175 -1.501,-0.261 -2.274,-0.261 -1.025,0 -1.849,0.058 -2.477,0.174 -0.629,0.115 -1.194,0.261 -1.695,0.434 -0.426,0.155 -0.72,0.439 -0.884,0.855 -0.165,0.416 -0.188,0.826 -0.072,1.23 0.154,0.484 0.444,0.816 0.868,1 0.425,0.184 0.841,0.199 1.246,0.045 0.425,-0.156 0.855,-0.286 1.29,-0.392 0.434,-0.106 1.027,-0.159 1.782,-0.159 0.734,0 1.307,0.125 1.724,0.376 0.413,0.251 0.621,0.6 0.621,1.043 0,0.366 -0.12,0.652 -0.362,0.855 -0.241,0.203 -0.551,0.362 -0.926,0.478 -0.378,0.116 -0.811,0.212 -1.303,0.29 -0.493,0.077 -0.981,0.184 -1.465,0.318 -0.444,0.116 -0.873,0.262 -1.287,0.435 -0.416,0.174 -0.784,0.42 -1.102,0.739 -0.318,0.319 -0.575,0.719 -0.767,1.203 -0.194,0.482 -0.29,1.081 -0.29,1.795 0,0.773 0.144,1.449 0.433,2.028 0.291,0.58 0.687,1.067 1.188,1.463 0.504,0.397 1.078,0.696 1.725,0.899 0.647,0.202 1.337,0.304 2.071,0.304 0.926,0 1.696,-0.058 2.304,-0.174 0.609,-0.116 1.191,-0.271 1.752,-0.463 0.443,-0.155 0.768,-0.431 0.97,-0.826 0.204,-0.396 0.228,-0.807 0.073,-1.232 -0.135,-0.425 -0.395,-0.743 -0.782,-0.955 -0.388,-0.213 -0.802,-0.252 -1.245,-0.116 -0.562,0.192 -1.049,0.332 -1.465,0.42 -0.414,0.087 -0.873,0.13 -1.374,0.13 -0.697,0 -1.198,-0.121 -1.507,-0.362 -0.31,-0.242 -0.464,-0.536 -0.464,-0.884 0,-0.328 0.095,-0.584 0.288,-0.768 0.194,-0.184 0.455,-0.333 0.783,-0.449 0.33,-0.116 0.706,-0.212 1.131,-0.289 0.425,-0.077 0.878,-0.165 1.361,-0.262 0.483,-0.116 0.961,-0.259 1.434,-0.433 0.474,-0.175 0.899,-0.426 1.275,-0.754 0.377,-0.328 0.68,-0.749 0.913,-1.26 0.231,-0.512 0.347,-1.164 0.347,-1.956 0,-0.869 -0.173,-1.603 -0.521,-2.202"
       style="fill:#7a1d90;fill-opacity:1;fill-rule:nonzero;stroke:none;stroke-width:0.1"
       id="path24" /><path
       d="m 327.756,186.984 c -10.43,0 -19.304,-8.876 -19.304,-19.306 0,-10.649 8.874,-19.304 19.304,-19.304 10.429,0 19.305,8.655 19.305,19.304 0,10.43 -8.876,19.306 -19.305,19.306"
       style="fill:#7a1d90;fill-opacity:1;fill-rule:nonzero;stroke:none;stroke-width:0.1"
       id="path26" /><path
       d="m 327.756,130.534 c -10.43,0 -19.304,-8.877 -19.304,-19.307 0,-10.65 8.874,-19.304 19.304,-19.304 10.429,0 19.305,8.654 19.305,19.304 0,10.43 -8.876,19.307 -19.305,19.307"
       style="fill:#7a1d90;fill-opacity:1;fill-rule:nonzero;stroke:none;stroke-width:0.1"
       id="path28" /><path
       d="M 81.1574,93.2469 V 134.579 C 69.5102,129.642 58.143,126.418 47.2316,124.524 V 93.2469 c 0,-4.6938 1.6536,-8.6938 4.961,-12.002 3.3097,-3.307 7.3078,-4.9609 12.0019,-4.9609 4.6926,0 8.6926,1.6539 12.002,4.9609 3.3066,3.3082 4.9609,7.3082 4.9609,12.002"
       style="fill:#ca9fd5;fill-opacity:1;fill-rule:nonzero;stroke:none;stroke-width:0.1"
       id="path30" /><path
       d="m 81.1574,177.265 c 0,4.693 -1.6543,8.693 -4.9609,12 -2.3719,2.374 -5.1016,3.89 -8.1863,4.561 3.0847,0.671 5.8144,2.189 8.1863,4.56 3.3066,3.307 4.9609,7.307 4.9609,12.002 0,4.691 -1.6543,8.692 -4.9609,12 -3.3094,3.308 -7.3094,4.963 -12.002,4.963 -4.6941,0 -8.6922,-1.655 -12.0019,-4.963 -3.3074,-3.308 -4.961,-7.309 -4.961,-12 0,-4.695 1.6536,-8.695 4.961,-12.002 2.3722,-2.371 5.1008,-3.889 8.1855,-4.56 -3.0847,-0.671 -5.8133,-2.187 -8.1855,-4.561 -3.3074,-3.307 -4.961,-7.307 -4.961,-12 v -52.741 c 10.9114,1.894 22.2786,5.118 33.9258,10.055 v 42.686"
       style="fill:#b370be;fill-opacity:1;fill-rule:nonzero;stroke:none;stroke-width:0.1"
       id="path32" /><path
       d="m 135.434,76.284 c 3.658,0 7.174,0.343 10.552,1.0129 3.369,35.3241 16.216,63.3491 33.685,85.5231 -9.205,5.718 -18.275,11.979 -27.05,18.833 -0.139,-0.904 -0.226,-1.831 -0.226,-2.793 v -51.687 c 0,-4.696 -1.653,-8.694 -4.962,-12 -3.308,-3.309 -7.309,-4.963 -11.999,-4.963 -4.695,0 -8.694,1.654 -12.003,4.963 -3.308,3.306 -4.962,7.304 -4.962,12 v 29.005 c -1.943,-1.433 -3.932,-2.856 -5.973,-4.265 -9.424,-6.507 -18.7683,-11.715 -27.9526,-15.854 v -8.886 c 0,-14.137 4.9472,-26.151 14.8437,-36.0468 C 109.282,81.2309 121.295,76.284 135.434,76.284"
       style="fill:#ca9fd5;fill-opacity:1;fill-rule:nonzero;stroke:none;stroke-width:0.1"
       id="path34" /><path
       d="m 145.986,77.2969 c 9.621,1.9082 18.107,6.5269 25.452,13.8722 9.923,9.9209 14.885,21.9249 14.885,36.0039 v 31.618 c -2.224,1.311 -4.441,2.656 -6.652,4.029 -17.469,-22.174 -30.316,-50.199 -33.685,-85.5231"
       style="fill:#a85ab4;fill-opacity:1;fill-rule:nonzero;stroke:none;stroke-width:0.1"
       id="path36" /><path
       d="m 181.361,190.862 c -3.309,3.306 -7.309,4.959 -12.003,4.959 -4.693,0 -8.692,-1.653 -12,-4.959 -2.629,-2.63 -4.197,-5.705 -4.737,-9.209 8.775,-6.854 17.845,-13.115 27.05,-18.833 2.211,-1.373 4.428,-2.718 6.652,-4.029 v 11.954 8.115 c 0,4.692 -1.656,8.693 -4.962,12.002"
       style="fill:#8a3ea4;fill-opacity:1;fill-rule:nonzero;stroke:none;stroke-width:0.1"
       id="path38" /><path
       d="m 118.469,156.178 v 22.682 c 0,4.692 -1.654,8.693 -4.962,12.002 -3.307,3.306 -7.308,4.959 -12,4.959 -4.6953,0 -8.6933,-1.653 -12.0019,-4.959 -3.3074,-3.309 -4.9617,-7.31 -4.9617,-12.002 v -42.801 c 9.1843,4.139 18.5286,9.347 27.9526,15.854 2.041,1.409 4.03,2.832 5.973,4.265"
       style="fill:#b370be;fill-opacity:1;fill-rule:nonzero;stroke:none;stroke-width:0.1"
       id="path40" /><path
       d="m 234.533,194.449 h -10.899 c 0,1.642 -0.203,4.599 -0.607,7.892 -0.416,3.391 -1.047,7.133 -1.892,10.168 -0.682,2.45 -1.502,4.439 -2.463,5.399 -3.306,3.308 -7.309,4.962 -12.003,4.962 -0.644,0 -1.273,-0.038 -1.892,-0.101 -3.882,-0.392 -7.254,-2.008 -10.107,-4.861 -3.308,-3.307 -4.962,-7.309 -4.962,-12.001 v -31.479 -17.609 c 6.215,-3.571 12.463,-6.905 18.694,-10.018 0.115,0.172 0.233,0.339 0.348,0.51 0.539,0.8 1.082,1.594 1.63,2.385 0.183,0.265 0.364,0.53 0.549,0.793 1.452,2.081 2.932,4.128 4.435,6.142 0.186,0.249 0.374,0.497 0.561,0.745 0.586,0.778 1.176,1.552 1.769,2.32 0.195,0.253 0.389,0.505 0.585,0.757 0.724,0.93 1.452,1.854 2.185,2.769 l 0.107,0.134 c 0.795,0.99 1.596,1.97 2.403,2.941 0.146,0.177 0.295,0.352 0.441,0.529 0.654,0.783 1.31,1.56 1.969,2.33 0.191,0.223 0.382,0.445 0.572,0.667 0.7,0.811 1.402,1.615 2.107,2.411 0.101,0.114 0.202,0.231 0.303,0.345 0.835,0.939 1.674,1.868 2.517,2.787 l 0.202,0.219 c 0.75,0.815 1.502,1.62 2.257,2.419 0.181,0.19 0.361,0.38 0.542,0.569 0.697,0.733 1.398,1.459 2.099,2.178 0.137,0.14 0.274,0.282 0.412,0.423 1.686,1.718 3.382,3.393 5.085,5.023 0.164,0.158 0.329,0.314 0.494,0.471 0.699,0.666 1.4,1.325 2.101,1.976 0.168,0.156 0.336,0.313 0.505,0.468 0.394,0.363 0.787,0.724 1.182,1.082 -3.155,2.826 -6.893,4.255 -11.229,4.255"
       style="fill:#8a3ea4;fill-opacity:1;fill-rule:nonzero;stroke:none;stroke-width:0.1"
       id="path42" /><path
       d="m 215.925,157.376 c 0.586,0.778 1.176,1.552 1.769,2.32 -0.593,-0.768 -1.183,-1.542 -1.769,-2.32"
       style="fill:#7c2e9a;fill-opacity:1;fill-rule:nonzero;stroke:none;stroke-width:0.1"
       id="path44" /><path
       d="m 215.925,157.376 c 0.586,0.778 1.176,1.552 1.769,2.32 -0.593,-0.768 -1.183,-1.542 -1.769,-2.32"
       style="fill:#5d2a94;fill-opacity:1;fill-rule:nonzero;stroke:none;stroke-width:0.1"
       id="path46" /><path
       d="m 241.974,186.668 c 0.699,0.666 1.4,1.325 2.101,1.976 -0.701,-0.651 -1.402,-1.31 -2.101,-1.976"
       style="fill:#7c2e9a;fill-opacity:1;fill-rule:nonzero;stroke:none;stroke-width:0.1"
       id="path48" /><path
       d="m 241.974,186.668 c 0.699,0.666 1.4,1.325 2.101,1.976 -0.701,-0.651 -1.402,-1.31 -2.101,-1.976"
       style="fill:#9c54b0;fill-opacity:1;fill-rule:nonzero;stroke:none;stroke-width:0.1"
       id="path50" /><path
       d="m 228.366,172.579 c 0.835,0.939 1.674,1.868 2.517,2.787 -0.843,-0.919 -1.682,-1.848 -2.517,-2.787"
       style="fill:#7c2e9a;fill-opacity:1;fill-rule:nonzero;stroke:none;stroke-width:0.1"
       id="path52" /><path
       d="m 228.366,172.579 c 0.835,0.939 1.674,1.868 2.517,2.787 -0.843,-0.919 -1.682,-1.848 -2.517,-2.787"
       style="fill:#9c54b0;fill-opacity:1;fill-rule:nonzero;stroke:none;stroke-width:0.1"
       id="path54" /><path
       d="m 233.884,178.573 c 0.697,0.733 1.398,1.459 2.099,2.178 -0.701,-0.719 -1.402,-1.445 -2.099,-2.178"
       style="fill:#7c2e9a;fill-opacity:1;fill-rule:nonzero;stroke:none;stroke-width:0.1"
       id="path56" /><path
       d="m 233.884,178.573 c 0.697,0.733 1.398,1.459 2.099,2.178 -0.701,-0.719 -1.402,-1.445 -2.099,-2.178"
       style="fill:#9c54b0;fill-opacity:1;fill-rule:nonzero;stroke:none;stroke-width:0.1"
       id="path58" /><path
       d="m 220.571,163.356 c 0.795,0.99 1.596,1.97 2.403,2.941 -0.807,-0.971 -1.608,-1.951 -2.403,-2.941"
       style="fill:#7c2e9a;fill-opacity:1;fill-rule:nonzero;stroke:none;stroke-width:0.1"
       id="path60" /><path
       d="m 220.571,163.356 c 0.795,0.99 1.596,1.97 2.403,2.941 -0.807,-0.971 -1.608,-1.951 -2.403,-2.941"
       style="fill:#9c54b0;fill-opacity:1;fill-rule:nonzero;stroke:none;stroke-width:0.1"
       id="path62" /><path
       d="m 231.085,175.585 c 0.75,0.815 1.502,1.62 2.257,2.419 -0.755,-0.799 -1.507,-1.604 -2.257,-2.419"
       style="fill:#7c2e9a;fill-opacity:1;fill-rule:nonzero;stroke:none;stroke-width:0.1"
       id="path64" /><path
       d="m 231.085,175.585 c 0.75,0.815 1.502,1.62 2.257,2.419 -0.755,-0.799 -1.507,-1.604 -2.257,-2.419"
       style="fill:#5d2a94;fill-opacity:1;fill-rule:nonzero;stroke:none;stroke-width:0.1"
       id="path66" /><path
       d="m 218.279,160.453 c 0.724,0.93 1.452,1.855 2.185,2.769 -0.733,-0.915 -1.461,-1.839 -2.185,-2.769"
       style="fill:#7c2e9a;fill-opacity:1;fill-rule:nonzero;stroke:none;stroke-width:0.1"
       id="path68" /><path
       d="m 218.279,160.453 c 0.724,0.93 1.452,1.855 2.185,2.769 -0.733,-0.915 -1.461,-1.839 -2.185,-2.769"
       style="fill:#5d2a94;fill-opacity:1;fill-rule:nonzero;stroke:none;stroke-width:0.1"
       id="path70" /><path
       d="m 245.766,190.19 -0.004,0.004 c -0.395,-0.358 -0.788,-0.719 -1.182,-1.082 0.395,0.364 0.79,0.719 1.186,1.078"
       style="fill:#7c2e9a;fill-opacity:1;fill-rule:nonzero;stroke:none;stroke-width:0.1"
       id="path72" /><path
       d="m 244.58,189.112 c 0.394,0.363 0.787,0.724 1.182,1.082 l 0.004,-0.004 c -0.396,-0.359 -0.791,-0.714 -1.186,-1.078"
       style="fill:#5d2a94;fill-opacity:1;fill-rule:nonzero;stroke:none;stroke-width:0.1"
       id="path74" /><path
       d="m 225.956,169.823 c 0.7,0.81 1.402,1.615 2.107,2.411 -0.705,-0.796 -1.407,-1.6 -2.107,-2.411"
       style="fill:#7c2e9a;fill-opacity:1;fill-rule:nonzero;stroke:none;stroke-width:0.1"
       id="path76" /><path
       d="m 225.956,169.823 c 0.7,0.811 1.402,1.615 2.107,2.411 -0.705,-0.796 -1.407,-1.601 -2.107,-2.411"
       style="fill:#5d2a94;fill-opacity:1;fill-rule:nonzero;stroke:none;stroke-width:0.1"
       id="path78" /><path
       d="m 241.48,186.197 c -1.703,-1.63 -3.399,-3.305 -5.085,-5.023 1.686,1.718 3.382,3.393 5.085,5.023"
       style="fill:#7c2e9a;fill-opacity:1;fill-rule:nonzero;stroke:none;stroke-width:0.1"
       id="path80" /><path
       d="m 236.395,181.174 c 1.686,1.718 3.382,3.393 5.085,5.023 -1.703,-1.63 -3.399,-3.305 -5.085,-5.023"
       style="fill:#9c54b0;fill-opacity:1;fill-rule:nonzero;stroke:none;stroke-width:0.1"
       id="path82" /><path
       d="m 223.415,166.826 c 0.654,0.783 1.311,1.56 1.969,2.33 -0.659,-0.77 -1.315,-1.547 -1.969,-2.33"
       style="fill:#7c2e9a;fill-opacity:1;fill-rule:nonzero;stroke:none;stroke-width:0.1"
       id="path84" /><path
       d="m 223.415,166.826 c 0.654,0.783 1.31,1.56 1.969,2.33 -0.658,-0.77 -1.315,-1.547 -1.969,-2.33"
       style="fill:#5d2a94;fill-opacity:1;fill-rule:nonzero;stroke:none;stroke-width:0.1"
       id="path86" /><path
       d="m 208.75,147.311 c 0.539,0.8 1.082,1.594 1.63,2.385 -0.548,-0.791 -1.091,-1.585 -1.63,-2.385"
       style="fill:#7c2e9a;fill-opacity:1;fill-rule:nonzero;stroke:none;stroke-width:0.1"
       id="path88" /><path
       d="m 208.75,147.311 c 0.539,0.8 1.082,1.594 1.63,2.385 -0.548,-0.791 -1.091,-1.585 -1.63,-2.385"
       style="fill:#9c54b0;fill-opacity:1;fill-rule:nonzero;stroke:none;stroke-width:0.1"
       id="path90" /><path
       d="m 208.401,146.799 10e-4,0.002 c -6.231,3.113 -12.479,6.447 -18.694,10.018 v -29.646 c 0,-4.019 0.414,-7.864 1.223,-11.543 5.003,10.97 10.933,21.408 17.475,31.168 l -0.005,0.001"
       style="fill:#a85ab4;fill-opacity:1;fill-rule:nonzero;stroke:none;stroke-width:0.1"
       id="path92" /><path
       d="m 210.929,150.489 c 1.452,2.081 2.932,4.128 4.435,6.142 -1.503,-2.014 -2.983,-4.061 -4.435,-6.142"
       style="fill:#7c2e9a;fill-opacity:1;fill-rule:nonzero;stroke:none;stroke-width:0.1"
       id="path94" /><path
       d="m 210.929,150.489 c 1.452,2.081 2.932,4.128 4.435,6.142 -1.503,-2.014 -2.983,-4.061 -4.435,-6.142"
       style="fill:#9c54b0;fill-opacity:1;fill-rule:nonzero;stroke:none;stroke-width:0.1"
       id="path96" /><path
       d="m 246.885,111.364 c -2.061,-0.818 -4.156,-1.22 -6.286,-1.191 v 0.037 c -0.68,0 -1.34,0.039 -1.989,0.109 -1.037,0.135 -2.083,0.373 -3.139,0.709 -1.895,0.604 -3.58,1.453 -5.056,2.549 -0.629,0.48 -1.235,1.012 -1.818,1.596 -0.315,0.312 -0.607,0.632 -0.891,0.959 -0.818,0.974 -1.542,2.062 -2.165,3.267 l -0.059,-0.033 c -1.229,2.346 -1.848,4.945 -1.848,7.807 v 13.172 c -0.895,0.367 -1.852,0.759 -2.834,1.163 -0.75,0.309 -1.515,0.625 -2.28,0.942 -4.229,1.751 -8.437,3.526 -10,4.291 l -0.114,0.057 c -6.542,-9.76 -12.472,-20.198 -17.475,-31.168 0.524,-2.387 1.21,-4.706 2.074,-6.95 1.725,-4.474 4.123,-8.668 7.198,-12.5761 3.409,-4.5391 7.454,-8.334 12.13,-11.3848 1.749,-1.1921 3.556,-2.2449 5.41,-3.1839 l 0.081,-0.0391 c 4.731,4.0469 9.371,8.3109 13.876,12.8371 5.342,5.3137 10.493,10.9998 15.389,17.1128 l -0.204,-0.082"
       style="fill:#782f9a;fill-opacity:1;fill-rule:nonzero;stroke:none;stroke-width:0.1"
       id="path98" /><path
       d="m 278.834,109.807 c -2.147,4.155 -5.457,6.948 -9.928,8.371 -4.473,1.426 -8.778,1.045 -12.915,-1.136 l -7.551,-4.985 c -0.449,-0.226 -0.9,-0.425 -1.351,-0.611 l -0.204,-0.082 c -4.829,-6.082 -9.913,-11.737 -15.185,-17.0308 -4.505,-4.5262 -9.145,-8.7902 -13.876,-12.8371 4.849,-2.4449 10.054,-4.0402 15.625,-4.759 10.484,-1.6351 20.675,0.084 30.575,5.1641 3.215,1.7047 6.13,3.5957 8.749,5.6699 3.475,2.1539 5.857,5.2539 7.145,9.2949 1.424,4.471 1.065,8.785 -1.084,12.941"
       style="fill:#9e51ae;fill-opacity:1;fill-rule:nonzero;stroke:none;stroke-width:0.1"
       id="path100" /><path
       d="m 208.406,146.798 0.001,0.001 -0.005,0.002 -10e-4,-0.002 0.005,-0.001"
       style="fill:#6d2190;fill-opacity:1;fill-rule:nonzero;stroke:none;stroke-width:0.1"
       id="path102" /><path
       d="m 220.464,163.222 0.107,0.134 -0.107,-0.134"
       style="fill:#6d2190;fill-opacity:1;fill-rule:nonzero;stroke:none;stroke-width:0.1"
       id="path104" /><path
       d="m 217.694,159.696 c 0.195,0.253 0.389,0.505 0.585,0.757 -0.196,-0.252 -0.39,-0.504 -0.585,-0.757"
       style="fill:#6d2190;fill-opacity:1;fill-rule:nonzero;stroke:none;stroke-width:0.1"
       id="path106" /><path
       d="m 222.974,166.297 c 0.146,0.177 0.295,0.352 0.441,0.529 -0.146,-0.177 -0.295,-0.352 -0.441,-0.529"
       style="fill:#6d2190;fill-opacity:1;fill-rule:nonzero;stroke:none;stroke-width:0.1"
       id="path108" /><path
       d="m 210.38,149.696 c 0.183,0.265 0.364,0.53 0.549,0.793 -0.185,-0.263 -0.366,-0.528 -0.549,-0.793"
       style="fill:#6d2190;fill-opacity:1;fill-rule:nonzero;stroke:none;stroke-width:0.1"
       id="path110" /><path
       d="m 215.365,156.631 c 0.185,0.249 0.373,0.497 0.56,0.745 -0.187,-0.248 -0.375,-0.496 -0.56,-0.745"
       style="fill:#6d2190;fill-opacity:1;fill-rule:nonzero;stroke:none;stroke-width:0.1"
       id="path112" /><path
       d="m 241.48,186.197 c 0.164,0.158 0.329,0.314 0.494,0.471 -0.165,-0.157 -0.33,-0.313 -0.494,-0.471"
       style="fill:#6d2190;fill-opacity:1;fill-rule:nonzero;stroke:none;stroke-width:0.1"
       id="path114" /><path
       d="m 244.075,188.644 c 0.168,0.155 0.336,0.313 0.505,0.468 -0.169,-0.155 -0.337,-0.312 -0.505,-0.468"
       style="fill:#6d2190;fill-opacity:1;fill-rule:nonzero;stroke:none;stroke-width:0.1"
       id="path116" /><path
       d="m 235.983,180.751 c 0.137,0.14 0.274,0.282 0.412,0.423 -0.138,-0.141 -0.275,-0.283 -0.412,-0.423"
       style="fill:#6d2190;fill-opacity:1;fill-rule:nonzero;stroke:none;stroke-width:0.1"
       id="path118" /><path
       d="m 208.75,147.311 c -0.115,-0.171 -0.233,-0.338 -0.348,-0.51 l 0.005,-0.002 c 0.114,0.171 0.228,0.342 0.343,0.512"
       style="fill:#6d2190;fill-opacity:1;fill-rule:nonzero;stroke:none;stroke-width:0.1"
       id="path120" /><path
       d="m 225.384,169.156 c 0.191,0.223 0.382,0.445 0.572,0.667 -0.19,-0.222 -0.381,-0.444 -0.572,-0.667"
       style="fill:#6d2190;fill-opacity:1;fill-rule:nonzero;stroke:none;stroke-width:0.1"
       id="path122" /><path
       d="m 228.063,172.234 c 0.101,0.114 0.202,0.231 0.303,0.345 -0.101,-0.114 -0.202,-0.231 -0.303,-0.345"
       style="fill:#6d2190;fill-opacity:1;fill-rule:nonzero;stroke:none;stroke-width:0.1"
       id="path124" /><path
       d="m 233.342,178.004 c 0.181,0.19 0.361,0.379 0.542,0.569 -0.181,-0.189 -0.361,-0.379 -0.542,-0.569"
       style="fill:#6d2190;fill-opacity:1;fill-rule:nonzero;stroke:none;stroke-width:0.1"
       id="path126" /><path
       d="m 230.883,175.366 0.202,0.219 -0.202,-0.219"
       style="fill:#6d2190;fill-opacity:1;fill-rule:nonzero;stroke:none;stroke-width:0.1"
       id="path128" /><path
       d="m 208.52,146.741 -0.113,0.058 -0.001,-0.001 z"
       style="fill:#6d2190;fill-opacity:1;fill-rule:nonzero;stroke:none;stroke-width:0.1"
       id="path130" /><path
       d="m 250.552,183.174 c -0.804,2.3 -2.113,4.39 -3.961,6.252 l -0.056,0.061 c -0.25,0.25 -0.511,0.472 -0.769,0.703 -0.396,-0.359 -0.791,-0.714 -1.186,-1.078 -0.169,-0.155 -0.337,-0.313 -0.505,-0.468 -0.701,-0.651 -1.402,-1.31 -2.101,-1.976 -0.165,-0.157 -0.33,-0.313 -0.494,-0.471 -1.703,-1.63 -3.399,-3.305 -5.085,-5.023 -0.138,-0.141 -0.275,-0.283 -0.412,-0.423 -0.701,-0.719 -1.402,-1.445 -2.099,-2.178 -0.181,-0.19 -0.361,-0.379 -0.542,-0.569 -0.755,-0.799 -1.507,-1.604 -2.257,-2.419 l -0.202,-0.219 c -0.843,-0.919 -1.682,-1.848 -2.517,-2.787 -0.101,-0.114 -0.202,-0.231 -0.303,-0.345 -0.705,-0.796 -1.407,-1.601 -2.107,-2.411 -0.19,-0.222 -0.381,-0.444 -0.572,-0.667 -0.658,-0.77 -1.315,-1.547 -1.969,-2.33 -0.146,-0.177 -0.295,-0.352 -0.441,-0.529 -0.807,-0.971 -1.608,-1.951 -2.403,-2.941 l -0.107,-0.134 c -0.733,-0.914 -1.461,-1.839 -2.185,-2.769 -0.196,-0.252 -0.39,-0.504 -0.585,-0.757 -0.593,-0.768 -1.183,-1.542 -1.769,-2.32 -0.187,-0.248 -0.375,-0.496 -0.56,-0.745 -1.504,-2.014 -2.984,-4.061 -4.436,-6.142 -0.185,-0.263 -0.366,-0.528 -0.549,-0.793 -0.548,-0.791 -1.091,-1.585 -1.63,-2.385 -0.115,-0.17 -0.229,-0.341 -0.343,-0.512 l 0.113,-0.058 c 1.563,-0.765 5.771,-2.54 10,-4.291 0.765,-0.317 1.53,-0.633 2.28,-0.942 0.982,-0.404 1.939,-0.796 2.834,-1.163 v 5.25 3.345 11.584 h 9.3 1.136 0.462 c 4.694,0 8.694,1.653 12.003,4.962 3.308,3.307 4.962,7.307 4.962,12 0,2.028 -0.328,3.918 -0.945,5.688"
       style="fill:#672290;fill-opacity:1;fill-rule:nonzero;stroke:none;stroke-width:0.1"
       id="path132" /><path
       d="m 165.315,51.952 c 0,0.4902 -0.183,0.896 -0.544,1.2171 -0.361,0.3161 -0.88,0.4739 -1.561,0.4739 h -2.949 v -3.8379 h 3.101 c 0.724,0 1.228,0.1621 1.519,0.489 0.289,0.3239 0.434,0.734 0.434,1.2258 z m -0.586,6.5289 c 0,0.475 -0.159,0.8632 -0.479,1.1601 -0.317,0.2949 -0.787,0.4461 -1.409,0.4461 h -2.58 v -3.7949 h 2.038 c 0.334,0 0.647,0.0226 0.944,0.0738 0.295,0.0512 0.553,0.141 0.77,0.2711 0.217,0.1289 0.391,0.3008 0.519,0.5078 0.131,0.211 0.197,0.4692 0.197,0.7742 z m 3.318,-8.945 c -0.175,-0.5 -0.453,-0.9339 -0.835,-1.3027 -0.385,-0.3691 -0.885,-0.6582 -1.508,-0.8672 -0.621,-0.209 -1.38,-0.3148 -2.277,-0.3148 h -4.663 c -0.418,0 -0.769,0.1449 -1.053,0.432 -0.281,0.2906 -0.422,0.6449 -0.422,1.0648 v 12.818 c 0,0.4199 0.141,0.7711 0.422,1.0621 0.284,0.2867 0.635,0.434 1.053,0.434 h 4.121 c 0.882,0 1.63,-0.1133 2.243,-0.3359 0.616,-0.225 1.114,-0.5211 1.498,-0.8891 0.384,-0.3711 0.658,-0.793 0.824,-1.2691 0.167,-0.477 0.249,-0.9629 0.249,-1.4532 V 58.307 c 0,-0.709 -0.155,-1.334 -0.466,-1.8769 -0.311,-0.541 -0.799,-0.9571 -1.462,-1.2461 0.851,-0.275 1.486,-0.734 1.907,-1.3789 0.419,-0.6403 0.629,-1.334 0.629,-2.0699 v -0.6071 c 0,-0.5633 -0.086,-1.0941 -0.26,-1.5922"
       style="fill:#7a1d90;fill-opacity:1;fill-rule:nonzero;stroke:none;stroke-width:0.1"
       id="path134" /><path
       d="m 177.113,55.7488 c -0.276,-0.2027 -0.623,-0.2617 -1.041,-0.1738 -0.117,0.0289 -0.228,0.0512 -0.337,0.0641 -0.107,0.014 -0.308,0.0218 -0.596,0.0218 -0.434,0 -0.821,-0.0937 -1.161,-0.2808 -0.341,-0.1879 -0.574,-0.5121 -0.705,-0.977 v -6.0293 c 0,-0.4047 -0.141,-0.7476 -0.422,-1.0297 -0.281,-0.2812 -0.626,-0.423 -1.031,-0.423 -0.418,0 -0.77,0.1418 -1.052,0.423 -0.281,0.2821 -0.422,0.625 -0.422,1.0297 v 6.6582 c 0,0.377 -0.064,0.6371 -0.195,0.7809 -0.131,0.1453 -0.284,0.2953 -0.456,0.4551 -0.118,0.0879 -0.208,0.1992 -0.282,0.3359 -0.073,0.1371 -0.109,0.309 -0.109,0.5102 0,0.4199 0.131,0.725 0.391,0.9097 0.26,0.1883 0.614,0.2832 1.061,0.2832 h 0.217 l 0.24,-0.0449 c 0.405,-0.0992 0.734,-0.2551 0.986,-0.4641 0.254,-0.2089 0.454,-0.4539 0.598,-0.7269 0.245,0.3051 0.509,0.5449 0.79,0.7269 0.282,0.1809 0.557,0.318 0.825,0.4122 0.268,0.0929 0.525,0.1539 0.77,0.1828 0.245,0.03 0.456,0.0449 0.628,0.0449 0.29,0 0.546,-0.0289 0.771,-0.0879 0.224,-0.0578 0.415,-0.1379 0.575,-0.2379 0.273,-0.1742 0.451,-0.4062 0.531,-0.6949 0.079,-0.2891 0.076,-0.5781 -0.011,-0.866 -0.102,-0.334 -0.289,-0.6012 -0.563,-0.8024"
       style="fill:#7a1d90;fill-opacity:1;fill-rule:nonzero;stroke:none;stroke-width:0.1"
       id="path136" /><path
       d="m 183.922,55.684 c -0.26,0.332 -0.681,0.4961 -1.258,0.4961 -0.578,0 -1.009,-0.1641 -1.29,-0.4961 -0.281,-0.334 -0.423,-0.8121 -0.423,-1.4328 v -0.2821 h 3.361 v 0.2821 c 0,0.6207 -0.13,1.0988 -0.39,1.4328 z m 2.916,-3.6008 c -0.193,-0.2031 -0.43,-0.3031 -0.705,-0.3031 h -5.182 V 51.368 c 0,-0.6508 0.149,-1.1578 0.445,-1.52 0.297,-0.3589 0.747,-0.5429 1.354,-0.5429 0.535,0 0.979,0.041 1.334,0.1211 0.356,0.0808 0.721,0.2 1.096,0.3578 0.29,0.1148 0.573,0.1012 0.856,-0.0449 0.283,-0.143 0.467,-0.375 0.554,-0.693 0.101,-0.332 0.093,-0.625 -0.023,-0.877 -0.114,-0.2543 -0.31,-0.4382 -0.583,-0.555 -0.609,-0.2743 -1.198,-0.4571 -1.769,-0.5512 -0.572,-0.0957 -1.117,-0.1418 -1.638,-0.1418 -0.838,0 -1.546,0.1301 -2.126,0.3898 -0.578,0.2602 -1.047,0.6063 -1.411,1.0411 -0.36,0.4339 -0.619,0.9378 -0.779,1.5082 -0.16,0.5699 -0.238,1.1738 -0.238,1.8109 v 2.0168 c 0,0.6351 0.09,1.2422 0.27,1.8203 0.182,0.5789 0.46,1.084 0.835,1.5199 0.376,0.434 0.851,0.7809 1.421,1.041 0.571,0.2598 1.256,0.3911 2.051,0.3911 0.823,0 1.524,-0.127 2.102,-0.3793 0.578,-0.2539 1.044,-0.6 1.4,-1.0321 0.352,-0.4328 0.615,-0.9347 0.781,-1.5066 0.165,-0.5711 0.249,-1.1684 0.249,-1.7891 v -0.934 c 0,-0.289 -0.098,-0.5332 -0.294,-0.7359"
       style="fill:#7a1d90;fill-opacity:1;fill-rule:nonzero;stroke:none;stroke-width:0.1"
       id="path138" /><path
       d="m 194.895,47.4301 c -0.245,-0.252 -0.548,-0.3789 -0.909,-0.3789 h -0.825 c -0.782,0 -1.443,0.1199 -1.984,0.3578 -0.544,0.2398 -0.979,0.5781 -1.312,1.0191 -0.334,0.4418 -0.577,0.9731 -0.728,1.5938 -0.151,0.6211 -0.227,1.309 -0.227,2.0613 v 3.8398 h -0.347 c -0.333,0 -0.614,0.1192 -0.847,0.3571 -0.229,0.2359 -0.346,0.523 -0.346,0.8551 0,0.3339 0.117,0.616 0.346,0.8457 0.233,0.2312 0.514,0.348 0.847,0.348 h 0.347 v 1.4742 c 0,0.4051 0.144,0.752 0.432,1.041 0.29,0.2891 0.637,0.434 1.044,0.434 0.403,0 0.745,-0.1449 1.027,-0.434 0.285,-0.289 0.426,-0.6359 0.426,-1.041 v -1.4742 h 1.669 c 0.332,0 0.614,-0.1168 0.846,-0.348 0.231,-0.2297 0.346,-0.5118 0.346,-0.8457 0,-0.3321 -0.115,-0.6192 -0.346,-0.8551 -0.232,-0.2379 -0.514,-0.3571 -0.846,-0.3571 h -1.669 v -3.7949 c 0,-0.8851 0.114,-1.5199 0.345,-1.909 0.231,-0.3902 0.694,-0.5871 1.39,-0.5871 h 0.412 c 0.361,0 0.664,-0.1218 0.909,-0.3699 0.247,-0.2461 0.368,-0.548 0.368,-0.9101 0,-0.361 -0.121,-0.668 -0.368,-0.9219"
       style="fill:#7a1d90;fill-opacity:1;fill-rule:nonzero;stroke:none;stroke-width:0.1"
       id="path140" /><path
       d="m 201.51,51.6469 h -1.584 c -0.649,0 -1.101,-0.1149 -1.354,-0.3457 -0.254,-0.2301 -0.379,-0.5274 -0.379,-0.8883 v -0.1527 c 0,-0.4043 0.13,-0.7141 0.39,-0.9332 0.26,-0.2149 0.673,-0.3219 1.236,-0.3219 0.505,0 0.915,0.134 1.224,0.4078 0.312,0.275 0.467,0.7031 0.467,1.2812 z m 3.503,-4.4449 c -0.268,-0.1879 -0.627,-0.2809 -1.074,-0.2809 -0.289,0 -0.549,0.0461 -0.78,0.1418 -0.231,0.0941 -0.421,0.1973 -0.565,0.3152 -0.144,0.0989 -0.289,0.252 -0.434,0.4551 -0.418,-0.3641 -0.899,-0.6043 -1.442,-0.7293 -0.542,-0.1207 -1.051,-0.1828 -1.528,-0.1828 -1.318,0 -2.294,0.3078 -2.94,0.923 -0.642,0.6118 -0.965,1.434 -0.965,2.461 v 0.1531 c 0,1.025 0.367,1.8316 1.095,2.4156 0.73,0.5864 1.797,0.8793 3.2,0.8793 h 1.93 v 0.4117 c 0,0.6364 -0.107,1.1231 -0.324,1.4672 -0.216,0.3352 -0.658,0.5071 -1.323,0.5071 -0.464,0 -0.842,-0.0493 -1.14,-0.1422 -0.297,-0.0938 -0.567,-0.2071 -0.813,-0.336 -0.362,-0.1879 -0.691,-0.2269 -0.987,-0.1187 -0.296,0.109 -0.519,0.2828 -0.673,0.5207 -0.151,0.2383 -0.205,0.5101 -0.163,0.8133 0.046,0.3039 0.233,0.5617 0.565,0.7808 0.463,0.3032 1.007,0.5141 1.638,0.6289 0.628,0.1153 1.233,0.1743 1.81,0.1743 0.782,0 1.446,-0.0922 1.996,-0.2723 0.551,-0.1809 0.998,-0.459 1.345,-0.834 0.347,-0.3769 0.6,-0.857 0.759,-1.4449 0.159,-0.582 0.237,-1.2809 0.237,-2.0918 v -3.6211 c 0,-0.377 0.054,-0.6352 0.165,-0.7832 0.108,-0.143 0.24,-0.2867 0.399,-0.432 0.116,-0.1008 0.214,-0.2207 0.293,-0.3571 0.08,-0.1367 0.121,-0.309 0.121,-0.5097 0,-0.42 -0.135,-0.725 -0.402,-0.9121"
       style="fill:#7a1d90;fill-opacity:1;fill-rule:nonzero;stroke:none;stroke-width:0.1"
       id="path142" /><path
       d="m 211.735,55.8012 c -0.295,0.125 -0.581,0.1859 -0.855,0.1859 -1.113,0 -1.671,-0.6859 -1.671,-2.0609 v -1.7571 c 0,-0.6492 0.119,-1.141 0.357,-1.475 0.241,-0.332 0.676,-0.498 1.314,-0.498 0.243,0 0.522,0.0488 0.834,0.1519 0.31,0.1 0.588,0.252 0.835,0.4551 v 4.4481 c -0.247,0.2437 -0.517,0.4289 -0.814,0.55 z m 3.742,-7.7731 c 0,-1.5199 -0.398,-2.723 -1.193,-3.6109 -0.794,-0.891 -2.002,-1.334 -3.622,-1.334 -0.504,0 -1.033,0.0348 -1.584,0.1066 -0.549,0.0723 -1.04,0.2032 -1.472,0.3911 -0.248,0.1171 -0.449,0.2671 -0.61,0.455 -0.159,0.1871 -0.238,0.42 -0.238,0.695 0,0.3171 0.121,0.598 0.357,0.8339 0.24,0.2403 0.526,0.3524 0.859,0.3383 0.159,-0.016 0.309,-0.0449 0.456,-0.0883 0.144,-0.0429 0.303,-0.0898 0.476,-0.1418 0.172,-0.0492 0.378,-0.096 0.618,-0.141 0.238,-0.0429 0.545,-0.0629 0.923,-0.0629 1.401,0 2.102,0.795 2.102,2.3829 v 0.5671 c -0.333,-0.205 -0.705,-0.3703 -1.116,-0.5019 -0.412,-0.1293 -0.821,-0.1942 -1.226,-0.1942 -0.737,0 -1.359,0.1102 -1.866,0.3258 -0.506,0.2172 -0.91,0.5364 -1.213,0.9563 -0.304,0.4179 -0.52,0.9328 -0.651,1.548 -0.13,0.6141 -0.195,1.3188 -0.195,2.116 v 0.8239 c 0,0.7808 0.068,1.4781 0.207,2.0922 0.135,0.6148 0.364,1.1339 0.682,1.5597 0.317,0.4281 0.726,0.7539 1.224,0.977 0.499,0.2242 1.11,0.3383 1.833,0.3383 0.463,0 0.899,-0.0821 1.313,-0.2411 0.412,-0.1582 0.783,-0.38 1.116,-0.6711 0.116,0.261 0.293,0.4758 0.532,0.652 0.239,0.1699 0.51,0.2602 0.814,0.2602 0.461,0 0.823,-0.1473 1.084,-0.4364 0.26,-0.2867 0.39,-0.6347 0.39,-1.0406 v -8.9551"
       style="fill:#7a1d90;fill-opacity:1;fill-rule:nonzero;stroke:none;stroke-width:0.1"
       id="path144" /><path
       d="m 226.494,47.3441 c -0.289,-0.2812 -0.635,-0.423 -1.041,-0.423 -0.406,0 -0.748,0.1418 -1.03,0.423 -0.281,0.2821 -0.422,0.625 -0.422,1.0297 v 5.6403 c 0,0.2168 -0.021,0.43 -0.066,0.639 -0.043,0.2071 -0.118,0.3891 -0.229,0.543 -0.107,0.1519 -0.262,0.275 -0.466,0.3668 -0.203,0.0941 -0.46,0.141 -0.78,0.141 -0.389,0 -0.737,-0.0777 -1.042,-0.2367 -0.303,-0.1621 -0.554,-0.3781 -0.758,-0.6524 v -6.441 c 0,-0.4047 -0.141,-0.7476 -0.422,-1.0297 -0.283,-0.2812 -0.626,-0.423 -1.032,-0.423 -0.418,0 -0.769,0.1418 -1.051,0.423 -0.283,0.2821 -0.423,0.625 -0.423,1.0297 v 6.6582 c 0,0.377 -0.064,0.6371 -0.196,0.7809 -0.129,0.1453 -0.282,0.2953 -0.455,0.4551 -0.116,0.0879 -0.209,0.1992 -0.282,0.3359 -0.07,0.1371 -0.108,0.309 -0.108,0.5102 0,0.4199 0.136,0.725 0.412,0.9097 0.273,0.1883 0.622,0.2832 1.041,0.2832 0.232,0 0.467,-0.0371 0.705,-0.107 0.238,-0.0738 0.46,-0.1898 0.662,-0.348 0.187,-0.1461 0.354,-0.3258 0.498,-0.543 0.392,0.3621 0.855,0.6449 1.389,0.8461 0.533,0.2051 1.156,0.3051 1.864,0.3051 0.694,0 1.273,-0.1 1.735,-0.3051 0.462,-0.2012 0.839,-0.4813 1.129,-0.836 0.288,-0.3543 0.494,-0.7832 0.616,-1.289 0.124,-0.5063 0.186,-1.0629 0.186,-1.6699 v -5.9864 c 0,-0.4047 -0.146,-0.7476 -0.434,-1.0297"
       style="fill:#7a1d90;fill-opacity:1;fill-rule:nonzero;stroke:none;stroke-width:0.1"
       id="path146" /><path
       d="m 234.453,55.684 c -0.259,0.332 -0.679,0.4961 -1.258,0.4961 -0.579,0 -1.008,-0.1641 -1.29,-0.4961 -0.282,-0.334 -0.422,-0.8121 -0.422,-1.4328 v -0.2821 h 3.361 v 0.2821 c 0,0.6207 -0.13,1.0988 -0.391,1.4328 z m 2.916,-3.6008 c -0.194,-0.2031 -0.428,-0.3031 -0.704,-0.3031 h -5.182 V 51.368 c 0,-0.6508 0.146,-1.1578 0.445,-1.52 0.295,-0.3589 0.746,-0.5429 1.354,-0.5429 0.535,0 0.98,0.041 1.333,0.1211 0.355,0.0808 0.721,0.2 1.097,0.3578 0.288,0.1148 0.575,0.1012 0.857,-0.0449 0.281,-0.143 0.466,-0.375 0.552,-0.693 0.102,-0.332 0.095,-0.625 -0.021,-0.877 -0.116,-0.2543 -0.311,-0.4382 -0.586,-0.555 -0.607,-0.2743 -1.196,-0.4571 -1.768,-0.5512 -0.572,-0.0957 -1.117,-0.1418 -1.637,-0.1418 -0.838,0 -1.548,0.1301 -2.125,0.3898 -0.579,0.2602 -1.048,0.6063 -1.41,1.0411 -0.362,0.4339 -0.622,0.9378 -0.781,1.5082 -0.159,0.5699 -0.239,1.1738 -0.239,1.8109 v 2.0168 c 0,0.6351 0.092,1.2422 0.271,1.8203 0.182,0.5789 0.458,1.084 0.835,1.5199 0.376,0.434 0.85,0.7809 1.421,1.041 0.572,0.2598 1.255,0.3911 2.05,0.3911 0.823,0 1.526,-0.127 2.103,-0.3793 0.578,-0.2539 1.046,-0.6 1.399,-1.0321 0.355,-0.4328 0.613,-0.9347 0.781,-1.5066 0.167,-0.5711 0.249,-1.1684 0.249,-1.7891 v -0.934 c 0,-0.289 -0.097,-0.5332 -0.294,-0.7359"
       style="fill:#7a1d90;fill-opacity:1;fill-rule:nonzero;stroke:none;stroke-width:0.1"
       id="path148" /><path
       d="m 254.895,49.7309 c -0.296,-0.6438 -0.706,-1.1797 -1.227,-1.6071 -0.52,-0.4258 -1.135,-0.7437 -1.842,-0.9527 -0.711,-0.209 -1.483,-0.3152 -2.322,-0.3152 -0.766,0 -1.482,0.0429 -2.146,0.1293 -0.665,0.0878 -1.308,0.2457 -1.931,0.4789 -0.347,0.13 -0.601,0.3218 -0.759,0.5757 -0.159,0.25 -0.239,0.5153 -0.239,0.7891 0,0.377 0.113,0.707 0.337,0.9883 0.223,0.2808 0.539,0.4219 0.944,0.4219 0.244,0 0.488,-0.0551 0.726,-0.1621 0.237,-0.1098 0.567,-0.2129 0.986,-0.3168 0.232,-0.0563 0.496,-0.1071 0.792,-0.1481 0.297,-0.043 0.64,-0.066 1.031,-0.066 1.098,0 1.893,0.1871 2.385,0.5641 0.49,0.375 0.736,0.8886 0.736,1.5367 0,0.4812 -0.146,0.848 -0.444,1.1082 -0.295,0.259 -0.855,0.5051 -1.68,0.7379 -0.275,0.0718 -0.583,0.1461 -0.921,0.2261 -0.34,0.0797 -0.683,0.1641 -1.031,0.25 -0.347,0.0879 -0.686,0.186 -1.02,0.293 -0.332,0.1078 -0.619,0.227 -0.866,0.3598 -0.549,0.316 -1,0.7422 -1.356,1.2793 -0.354,0.5328 -0.531,1.2558 -0.531,2.1679 0,0.811 0.144,1.525 0.434,2.1457 0.289,0.6223 0.679,1.1434 1.17,1.5633 0.492,0.418 1.066,0.7379 1.725,0.9551 0.658,0.2148 1.355,0.3219 2.092,0.3219 0.652,0 1.261,-0.0352 1.834,-0.1071 0.57,-0.0718 1.131,-0.2031 1.679,-0.391 0.362,-0.1172 0.625,-0.2949 0.793,-0.5429 0.165,-0.2461 0.248,-0.511 0.248,-0.802 0,-0.3621 -0.118,-0.6859 -0.357,-0.975 -0.239,-0.2891 -0.574,-0.434 -1.009,-0.434 -0.217,0 -0.43,0.043 -0.639,0.1309 -0.21,0.0859 -0.482,0.164 -0.813,0.239 -0.187,0.0418 -0.402,0.0821 -0.64,0.1192 -0.239,0.0348 -0.524,0.0539 -0.858,0.0539 -0.852,0 -1.51,-0.168 -1.973,-0.5 -0.462,-0.332 -0.694,-0.7949 -0.694,-1.3859 0,-0.5512 0.173,-0.9481 0.521,-1.1942 0.347,-0.2461 0.89,-0.4629 1.625,-0.65 0.335,-0.0879 0.681,-0.1699 1.042,-0.25 0.361,-0.0781 0.717,-0.166 1.063,-0.2601 0.348,-0.0938 0.677,-0.1989 0.985,-0.3161 0.313,-0.1136 0.59,-0.2437 0.836,-0.3886 0.608,-0.375 1.052,-0.85 1.334,-1.4203 0.284,-0.5719 0.423,-1.2418 0.423,-2.0079 0,-0.8511 -0.146,-1.6011 -0.443,-2.2421"
       style="fill:#7a1d90;fill-opacity:1;fill-rule:nonzero;stroke:none;stroke-width:0.1"
       id="path150" /><path
       d="m 266.562,47.202 c -0.281,-0.1879 -0.633,-0.2809 -1.052,-0.2809 -0.232,0 -0.467,0.041 -0.705,0.1187 -0.238,0.0801 -0.458,0.1993 -0.662,0.359 -0.217,0.1582 -0.403,0.3672 -0.563,0.6293 -0.378,-0.348 -0.83,-0.6191 -1.355,-0.8133 -0.528,-0.1968 -1.14,-0.2937 -1.834,-0.2937 -0.651,0 -1.206,0.0969 -1.668,0.2937 -0.465,0.1942 -0.84,0.4711 -1.129,0.834 -0.29,0.3621 -0.503,0.7883 -0.641,1.2782 -0.136,0.4921 -0.205,1.041 -0.205,1.65 v 6.0062 c 0,0.4059 0.143,0.7539 0.422,1.0406 0.283,0.2891 0.625,0.4364 1.032,0.4364 0.405,0 0.751,-0.1473 1.039,-0.4364 0.291,-0.2867 0.436,-0.6347 0.436,-1.0406 v -5.6391 c 0,-0.2461 0.021,-0.4722 0.063,-0.6812 0.046,-0.2109 0.12,-0.3867 0.228,-0.5309 0.11,-0.1468 0.261,-0.2582 0.457,-0.3379 0.194,-0.08 0.452,-0.1179 0.768,-0.1179 0.406,0 0.76,0.0808 1.063,0.2386 0.305,0.1582 0.551,0.375 0.738,0.65 v 6.4184 c 0,0.4059 0.144,0.7539 0.435,1.0406 0.288,0.2891 0.636,0.4364 1.04,0.4364 0.404,0 0.749,-0.1473 1.031,-0.4364 0.281,-0.2867 0.422,-0.6347 0.422,-1.0406 v -6.7871 c 0,-0.377 0.066,-0.6352 0.195,-0.7832 0.131,-0.143 0.282,-0.2867 0.456,-0.432 0.116,-0.086 0.213,-0.2028 0.292,-0.3477 0.081,-0.1422 0.119,-0.3184 0.119,-0.5191 0,-0.42 -0.141,-0.725 -0.422,-0.9121"
       style="fill:#7a1d90;fill-opacity:1;fill-rule:nonzero;stroke:none;stroke-width:0.1"
       id="path152" /><path
       d="m 273.903,55.3129 c -0.232,0.2031 -0.49,0.3672 -0.78,0.4883 -0.289,0.125 -0.563,0.1859 -0.824,0.1859 -0.638,0 -1.085,-0.182 -1.345,-0.543 -0.26,-0.3609 -0.391,-0.8812 -0.391,-1.5609 v -2.5391 c 0,-0.65 0.135,-1.1359 0.402,-1.4621 0.267,-0.325 0.719,-0.4871 1.355,-0.4871 0.55,0 1.077,0.1942 1.583,0.584 z m 3.471,-8.1109 c -0.275,-0.1879 -0.622,-0.2809 -1.04,-0.2809 -0.232,0 -0.468,0.041 -0.706,0.1187 -0.239,0.0801 -0.461,0.1993 -0.661,0.359 -0.131,0.1 -0.269,0.2313 -0.413,0.3891 -0.361,-0.2738 -0.787,-0.4867 -1.279,-0.6391 -0.492,-0.1519 -0.976,-0.2277 -1.454,-0.2277 -1.43,0 -2.486,0.3937 -3.165,1.1809 -0.68,0.7871 -1.021,1.9421 -1.021,3.4609 v 1.7562 c 0,0.795 0.069,1.5098 0.207,2.1481 0.137,0.6348 0.361,1.1738 0.672,1.616 0.31,0.4387 0.719,0.7809 1.226,1.0168 0.507,0.2398 1.127,0.3602 1.865,0.3602 0.419,0 0.831,-0.0633 1.236,-0.184 0.404,-0.125 0.759,-0.2891 1.062,-0.4883 l -0.022,3.5109 c 0,0.4051 0.145,0.7492 0.437,1.0301 0.287,0.2832 0.633,0.4242 1.039,0.4242 0.404,0 0.751,-0.141 1.04,-0.4242 0.29,-0.2809 0.435,-0.625 0.435,-1.0301 V 50.1961 c 0,-0.377 0.051,-0.6352 0.152,-0.7832 0.099,-0.143 0.238,-0.2867 0.411,-0.432 0.116,-0.086 0.209,-0.2028 0.282,-0.3477 0.073,-0.1422 0.108,-0.3184 0.108,-0.5191 0,-0.42 -0.137,-0.725 -0.411,-0.9121"
       style="fill:#7a1d90;fill-opacity:1;fill-rule:nonzero;stroke:none;stroke-width:0.1"
       id="path154" /><path
       d="m 64.9855,50.5102 c -0.2421,-0.6891 -0.6199,-1.293 -1.1308,-1.8082 -0.5106,-0.518 -1.1504,-0.9282 -1.9188,-1.229 -0.7695,-0.3 -1.6816,-0.4511 -2.7324,-0.4511 -1.0519,0 -1.9629,0.1511 -2.7336,0.4511 -0.7683,0.3008 -1.4051,0.711 -1.907,1.229 -0.502,0.5152 -0.875,1.1191 -1.1172,1.8082 -0.2453,0.6859 -0.3672,1.4238 -0.3672,2.2128 v 10.0122 c 0,0.4468 0.1543,0.8238 0.4598,1.1347 0.3066,0.3082 0.6887,0.4633 1.1418,0.4633 0.4558,0 0.8367,-0.1551 1.1426,-0.4633 0.3066,-0.3109 0.4609,-0.6879 0.4609,-1.1347 v -9.8731 c 0,-0.3551 0.0418,-0.7152 0.1289,-1.0781 0.0867,-0.3629 0.2344,-0.6918 0.4473,-0.9852 0.2129,-0.2918 0.5058,-0.5328 0.8828,-0.7179 0.3769,-0.186 0.8633,-0.2797 1.4609,-0.2797 0.5801,0 1.0586,0.0937 1.4363,0.2797 0.377,0.1851 0.6739,0.4261 0.8946,0.7179 0.2199,0.2934 0.3691,0.6223 0.4472,0.9852 0.0793,0.3629 0.1192,0.723 0.1192,1.0781 v 9.8731 c 0,0.4468 0.1562,0.8238 0.4707,1.1347 0.3137,0.3082 0.6984,0.4633 1.1535,0.4633 0.4559,0 0.8398,-0.1551 1.1543,-0.4633 0.3145,-0.3109 0.4727,-0.6879 0.4727,-1.1347 V 52.723 c 0,-0.789 -0.1231,-1.5269 -0.3665,-2.2128"
       style="fill:#7a1d90;fill-opacity:1;fill-rule:nonzero;stroke:none;stroke-width:0.1"
       id="path156" /><path
       d="m 77.3156,47.5441 c -0.3144,-0.3011 -0.6922,-0.4543 -1.1308,-0.4543 -0.4403,0 -0.8125,0.1532 -1.1192,0.4543 -0.3066,0.3 -0.459,0.668 -0.459,1.0989 v 6.0261 c 0,0.234 -0.0222,0.461 -0.0703,0.6848 -0.0468,0.225 -0.1289,0.416 -0.248,0.5781 -0.1172,0.1621 -0.286,0.293 -0.5067,0.395 -0.2187,0.0992 -0.5019,0.15 -0.8457,0.15 -0.4257,0 -0.8027,-0.084 -1.1328,-0.254 -0.3293,-0.1718 -0.6035,-0.4019 -0.8234,-0.6968 V 48.643 c 0,-0.4309 -0.1531,-0.7989 -0.4598,-1.0989 -0.3047,-0.3011 -0.6789,-0.4543 -1.1183,-0.4543 -0.4551,0 -0.836,0.1532 -1.1426,0.4543 -0.3055,0.3 -0.4598,0.668 -0.4598,1.0989 v 7.1152 c 0,0.4027 -0.0703,0.6797 -0.2109,0.834 -0.1418,0.1547 -0.3059,0.3187 -0.4953,0.4887 -0.125,0.0921 -0.2274,0.2132 -0.3055,0.357 -0.0793,0.1492 -0.1184,0.3281 -0.1184,0.5453 0,0.4469 0.1497,0.7738 0.4473,0.9727 0.2988,0.2011 0.6758,0.3023 1.132,0.3023 0.2489,0 0.5059,-0.0391 0.7637,-0.1152 0.2598,-0.0782 0.4988,-0.2032 0.7188,-0.3711 0.205,-0.1559 0.3847,-0.3481 0.541,-0.5797 0.4246,0.3867 0.9277,0.6879 1.5086,0.9019 0.5812,0.2188 1.2558,0.3289 2.0254,0.3289 0.7531,0 1.3808,-0.1101 1.8847,-0.3289 0.502,-0.214 0.9114,-0.5109 1.2239,-0.8902 0.3152,-0.3789 0.539,-0.8379 0.6718,-1.3789 0.1336,-0.541 0.2,-1.1371 0.2,-1.7852 V 48.643 c 0,-0.4309 -0.157,-0.7989 -0.4707,-1.0989"
       style="fill:#7a1d90;fill-opacity:1;fill-rule:nonzero;stroke:none;stroke-width:0.1"
       id="path158" /><path
       d="m 82.673,47.5441 c -0.3054,-0.3011 -0.6785,-0.4543 -1.1179,-0.4543 -0.4551,0 -0.836,0.1532 -1.1438,0.4543 -0.3047,0.3 -0.459,0.668 -0.459,1.0989 v 9.2011 c 0,0.4321 0.1543,0.8028 0.459,1.1118 0.3078,0.3101 0.6887,0.4671 1.1438,0.4671 0.4394,0 0.8125,-0.157 1.1179,-0.4671 0.3067,-0.309 0.4602,-0.6797 0.4602,-1.1118 V 48.643 c 0,-0.4309 -0.1535,-0.7989 -0.4602,-1.0989 z m 0.1301,13.9508 c -0.3449,-0.334 -0.7617,-0.498 -1.248,-0.498 -0.5031,0 -0.9278,0.164 -1.2727,0.498 -0.3445,0.3321 -0.5176,0.7442 -0.5176,1.2403 0,0.4918 0.1731,0.9058 0.5176,1.2398 0.3449,0.3301 0.7696,0.4961 1.2727,0.4961 0.4863,0 0.9031,-0.166 1.248,-0.4961 0.3457,-0.334 0.5184,-0.748 0.5184,-1.2398 0,-0.4961 -0.1727,-0.9082 -0.5184,-1.2403"
       style="fill:#7a1d90;fill-opacity:1;fill-rule:nonzero;stroke:none;stroke-width:0.1"
       id="path160" /><path
       d="m 93.3664,52.977 c -0.5723,-1.5129 -1.157,-2.959 -1.7547,-4.334 -0.2824,-0.6641 -0.6008,-1.0899 -0.9531,-1.2731 -0.3535,-0.1859 -0.7344,-0.2801 -1.1418,-0.2801 -0.4559,0 -0.8523,0.0981 -1.1914,0.2922 -0.3359,0.193 -0.6395,0.6129 -0.9051,1.261 -0.55,1.3621 -1.1047,2.8172 -1.6613,4.3691 -0.5567,1.5551 -1.0633,3.0731 -1.5184,4.5551 -0.0957,0.2769 -0.1152,0.5269 -0.0597,0.7519 0.0546,0.225 0.1562,0.418 0.3066,0.5797 0.1496,0.1621 0.3301,0.2891 0.5402,0.3813 0.2129,0.0937 0.4286,0.1429 0.6493,0.1429 0.2824,0 0.5449,-0.0839 0.789,-0.2468 0.2434,-0.1621 0.4278,-0.4192 0.5539,-0.775 0.1875,-0.5742 0.3836,-1.1703 0.5887,-1.7973 0.2031,-0.625 0.4121,-1.2559 0.6242,-1.8891 0.2117,-0.6339 0.4266,-1.2648 0.6473,-1.9 0.2187,-0.6328 0.4387,-1.2359 0.6594,-1.8066 0.4402,1.159 0.8835,2.3867 1.3308,3.684 0.4473,1.2988 0.8664,2.5328 1.2598,3.709 0.1269,0.3558 0.3137,0.6129 0.5644,0.775 0.2512,0.1629 0.5266,0.2468 0.8254,0.2468 0.2364,0 0.459,-0.0492 0.6707,-0.1429 0.2121,-0.0922 0.3938,-0.2231 0.5422,-0.393 0.1492,-0.1699 0.2527,-0.375 0.3074,-0.6152 0.0547,-0.2379 0.0332,-0.4981 -0.0593,-0.775 -0.5032,-1.4981 -1.0411,-3.0059 -1.6145,-4.5199"
       style="fill:#7a1d90;fill-opacity:1;fill-rule:nonzero;stroke:none;stroke-width:0.1"
       id="path162" /><path
       d="m 102.115,56.4539 c -0.283,0.3551 -0.738,0.5332 -1.365,0.5332 -0.629,0 -1.0953,-0.1781 -1.4012,-0.5332 -0.3074,-0.3559 -0.459,-0.8648 -0.459,-1.5301 v -0.3 h 3.6492 v 0.3 c 0,0.6653 -0.14,1.1742 -0.424,1.5301 z m 3.169,-3.8457 c -0.212,-0.2191 -0.467,-0.3262 -0.765,-0.3262 h -5.6292 v -0.4398 c 0,-0.6953 0.1602,-1.2363 0.4817,-1.6231 0.3211,-0.3859 0.8125,-0.5781 1.4725,-0.5781 0.58,0 1.063,0.041 1.449,0.127 0.384,0.084 0.78,0.2109 1.189,0.3832 0.313,0.1226 0.624,0.107 0.929,-0.0473 0.307,-0.1539 0.507,-0.4 0.601,-0.7418 0.11,-0.3551 0.103,-0.668 -0.023,-0.9383 -0.126,-0.2707 -0.337,-0.4656 -0.635,-0.5886 -0.66,-0.2954 -1.3,-0.493 -1.92,-0.5922 -0.62,-0.102 -1.213,-0.1532 -1.778,-0.1532 -0.9134,0 -1.681,0.1411 -2.3091,0.4184 -0.6278,0.2777 -1.1387,0.6488 -1.5301,1.1137 -0.3938,0.4633 -0.6758,1 -0.8477,1.609 -0.1738,0.6113 -0.2589,1.2543 -0.2589,1.9363 v 2.1539 c 0,0.682 0.0968,1.3277 0.2929,1.9469 0.1953,0.6191 0.4992,1.1582 0.9074,1.623 0.4071,0.4629 0.9219,0.834 1.5418,1.1121 0.6211,0.277 1.3633,0.4199 2.2257,0.4199 0.896,0 1.657,-0.139 2.285,-0.4089 0.628,-0.2692 1.134,-0.636 1.52,-1.0993 0.384,-0.4648 0.666,-1 0.847,-1.6117 0.181,-0.6109 0.272,-1.248 0.272,-1.9121 v -0.9961 c 0,-0.3097 -0.107,-0.5719 -0.318,-0.7867"
       style="fill:#7a1d90;fill-opacity:1;fill-rule:nonzero;stroke:none;stroke-width:0.1"
       id="path164" /><path
       d="m 114.929,56.5238 c -0.299,-0.2168 -0.676,-0.2789 -1.131,-0.1847 -0.126,0.0289 -0.248,0.0539 -0.366,0.0699 -0.117,0.014 -0.332,0.0211 -0.647,0.0211 -0.47,0 -0.891,-0.0992 -1.259,-0.3 -0.37,-0.202 -0.624,-0.5492 -0.766,-1.043 V 48.643 c 0,-0.4309 -0.153,-0.7989 -0.46,-1.0989 -0.306,-0.3011 -0.679,-0.4543 -1.118,-0.4543 -0.456,0 -0.836,0.1532 -1.143,0.4543 -0.305,0.3 -0.459,0.668 -0.459,1.0989 v 7.1152 c 0,0.4027 -0.071,0.6797 -0.213,0.834 -0.14,0.1547 -0.305,0.3187 -0.495,0.4887 -0.124,0.0921 -0.226,0.2132 -0.303,0.357 -0.08,0.1492 -0.12,0.3281 -0.12,0.5453 0,0.4469 0.141,0.7738 0.423,0.9727 0.285,0.2011 0.669,0.3023 1.156,0.3023 h 0.235 c 0.095,0 0.181,-0.0152 0.259,-0.048 0.441,-0.1082 0.797,-0.2743 1.071,-0.4961 0.276,-0.225 0.492,-0.4852 0.649,-0.7782 0.266,0.3243 0.554,0.584 0.86,0.7782 0.305,0.1929 0.603,0.3371 0.894,0.441 0.291,0.1 0.569,0.164 0.836,0.1949 0.268,0.032 0.495,0.0469 0.683,0.0469 0.314,0 0.593,-0.0309 0.837,-0.0938 0.244,-0.0601 0.451,-0.1461 0.625,-0.2543 0.297,-0.1847 0.489,-0.4328 0.576,-0.7398 0.086,-0.3102 0.083,-0.6192 -0.012,-0.927 -0.11,-0.3558 -0.315,-0.6429 -0.612,-0.8582"
       style="fill:#7a1d90;fill-opacity:1;fill-rule:nonzero;stroke:none;stroke-width:0.1"
       id="path166" /><path
       d="m 124.348,49.1551 c -0.28,-0.4813 -0.649,-0.8731 -1.107,-1.184 -0.454,-0.3082 -0.984,-0.5332 -1.587,-0.6723 -0.606,-0.1379 -1.221,-0.209 -1.849,-0.209 -0.833,0 -1.505,0.0473 -2.014,0.1411 -0.512,0.0921 -0.97,0.207 -1.38,0.3461 -0.344,0.125 -0.585,0.3531 -0.717,0.6832 -0.134,0.3339 -0.153,0.6628 -0.058,0.9867 0.125,0.3851 0.359,0.6519 0.706,0.7992 0.344,0.1461 0.683,0.1578 1.013,0.0348 0.345,-0.1227 0.695,-0.2289 1.048,-0.3129 0.353,-0.086 0.836,-0.127 1.448,-0.127 0.597,0 1.063,0.0981 1.402,0.3012 0.337,0.2008 0.505,0.4789 0.505,0.834 0,0.2949 -0.098,0.5218 -0.294,0.684 -0.196,0.1617 -0.447,0.2886 -0.753,0.382 -0.306,0.0918 -0.658,0.1699 -1.06,0.2328 -0.401,0.0602 -0.796,0.1441 -1.19,0.2539 -0.36,0.0922 -0.711,0.209 -1.048,0.3492 -0.337,0.1367 -0.635,0.334 -0.895,0.5899 -0.257,0.2539 -0.467,0.5742 -0.623,0.9609 -0.157,0.3871 -0.237,0.8652 -0.237,1.4383 0,0.6168 0.118,1.1578 0.355,1.6207 0.234,0.4652 0.556,0.8551 0.965,1.1703 0.407,0.3156 0.875,0.5559 1.401,0.718 0.526,0.1629 1.088,0.2468 1.683,0.2468 0.755,0 1.38,-0.0492 1.875,-0.1429 0.494,-0.0922 0.968,-0.2153 1.424,-0.3692 0.36,-0.125 0.625,-0.3437 0.789,-0.6597 0.165,-0.3192 0.183,-0.6473 0.059,-0.9852 -0.11,-0.3422 -0.322,-0.5949 -0.637,-0.7648 -0.314,-0.1703 -0.65,-0.2024 -1.012,-0.0922 -0.455,0.1519 -0.852,0.2648 -1.189,0.3359 -0.338,0.068 -0.712,0.1031 -1.12,0.1031 -0.564,0 -0.973,-0.0949 -1.224,-0.289 -0.25,-0.193 -0.376,-0.4289 -0.376,-0.707 0,-0.2629 0.077,-0.4688 0.235,-0.6149 0.157,-0.148 0.368,-0.266 0.635,-0.359 0.266,-0.0922 0.574,-0.1699 0.92,-0.2332 0.344,-0.0597 0.713,-0.1308 1.106,-0.209 0.393,-0.0898 0.781,-0.207 1.165,-0.3468 0.386,-0.1371 0.732,-0.3403 1.036,-0.602 0.309,-0.2621 0.555,-0.598 0.742,-1.0082 0.189,-0.4078 0.285,-0.9309 0.285,-1.5641 0,-0.6957 -0.143,-1.2828 -0.427,-1.7597"
       style="fill:#7a1d90;fill-opacity:1;fill-rule:nonzero;stroke:none;stroke-width:0.1"
       id="path168" /><path
       d="m 129.001,47.5441 c -0.306,-0.3011 -0.678,-0.4543 -1.119,-0.4543 -0.454,0 -0.835,0.1532 -1.142,0.4543 -0.305,0.3 -0.459,0.668 -0.459,1.0989 v 9.2011 c 0,0.4321 0.154,0.8028 0.459,1.1118 0.307,0.3101 0.688,0.4671 1.142,0.4671 0.441,0 0.813,-0.157 1.119,-0.4671 0.307,-0.309 0.459,-0.6797 0.459,-1.1118 V 48.643 c 0,-0.4309 -0.152,-0.7989 -0.459,-1.0989 z m 0.13,13.9508 c -0.346,-0.334 -0.762,-0.498 -1.249,-0.498 -0.503,0 -0.926,0.164 -1.271,0.498 -0.347,0.3321 -0.518,0.7442 -0.518,1.2403 0,0.4918 0.171,0.9058 0.518,1.2398 0.345,0.3301 0.768,0.4961 1.271,0.4961 0.487,0 0.903,-0.166 1.249,-0.4961 0.346,-0.334 0.518,-0.748 0.518,-1.2398 0,-0.4961 -0.172,-0.9082 -0.518,-1.2403"
       style="fill:#7a1d90;fill-opacity:1;fill-rule:nonzero;stroke:none;stroke-width:0.1"
       id="path170" /><path
       d="m 138.483,47.6352 c -0.268,-0.2692 -0.599,-0.4043 -0.991,-0.4043 h -0.894 c -0.849,0 -1.566,0.1273 -2.155,0.3832 -0.589,0.2539 -1.065,0.6168 -1.425,1.0879 -0.362,0.471 -0.625,1.0371 -0.79,1.7031 -0.164,0.666 -0.247,1.398 -0.247,2.2031 v 4.1 h -0.377 c -0.362,0 -0.667,0.127 -0.918,0.3816 -0.252,0.2563 -0.377,0.5614 -0.377,0.9172 0,0.3551 0.125,0.6559 0.377,0.9039 0.251,0.2461 0.556,0.3692 0.918,0.3692 h 0.377 v 1.5758 c 0,0.4339 0.157,0.805 0.472,1.1132 0.313,0.309 0.691,0.4649 1.129,0.4649 0.44,0 0.814,-0.1559 1.119,-0.4649 0.306,-0.3082 0.459,-0.6793 0.459,-1.1132 v -1.5758 h 1.814 c 0.361,0 0.668,-0.1231 0.919,-0.3692 0.251,-0.248 0.377,-0.5488 0.377,-0.9039 0,-0.3558 -0.126,-0.6609 -0.377,-0.9172 -0.251,-0.2546 -0.558,-0.3816 -0.919,-0.3816 h -1.814 v -4.0531 c 0,-0.943 0.126,-1.625 0.378,-2.041 0.25,-0.4161 0.753,-0.627 1.507,-0.627 h 0.447 c 0.392,0 0.723,-0.1312 0.991,-0.393 0.266,-0.2632 0.4,-0.5871 0.4,-0.9722 0,-0.3887 -0.134,-0.7168 -0.4,-0.9867"
       style="fill:#7a1d90;fill-opacity:1;fill-rule:nonzero;stroke:none;stroke-width:0.1"
       id="path172" /><path
       d="m 145.735,56.4539 c -0.282,0.3551 -0.738,0.5332 -1.366,0.5332 -0.629,0 -1.094,-0.1781 -1.4,-0.5332 -0.307,-0.3559 -0.46,-0.8648 -0.46,-1.5301 v -0.3 h 3.65 v 0.3 c 0,0.6653 -0.14,1.1742 -0.424,1.5301 z m -1.128,5.168 c -0.191,-0.309 -0.418,-0.5059 -0.685,-0.5918 -0.266,-0.084 -0.534,-0.066 -0.801,0.059 -0.283,0.1398 -0.487,0.3429 -0.612,0.6148 -0.125,0.2691 -0.102,0.5602 0.07,0.8672 l 1.32,2.6211 c 0.124,0.2769 0.353,0.4879 0.682,0.6367 0.33,0.1461 0.684,0.1191 1.062,-0.082 0.36,-0.186 0.58,-0.4399 0.658,-0.7637 0.078,-0.3262 0.031,-0.6172 -0.142,-0.8812 z m 4.297,-9.0137 c -0.212,-0.2191 -0.468,-0.3262 -0.766,-0.3262 h -5.629 v -0.4398 c 0,-0.6953 0.161,-1.2363 0.483,-1.6231 0.322,-0.3859 0.812,-0.5781 1.471,-0.5781 0.582,0 1.065,0.041 1.449,0.127 0.385,0.084 0.781,0.2109 1.19,0.3832 0.313,0.1226 0.624,0.107 0.93,-0.0473 0.306,-0.1539 0.506,-0.4 0.6,-0.7418 0.11,-0.3551 0.104,-0.668 -0.022,-0.9383 -0.126,-0.2707 -0.338,-0.4656 -0.637,-0.5886 -0.659,-0.2954 -1.299,-0.493 -1.919,-0.5922 -0.62,-0.102 -1.213,-0.1532 -1.778,-0.1532 -0.911,0 -1.68,0.1411 -2.309,0.4184 -0.629,0.2777 -1.138,0.6488 -1.531,1.1137 -0.392,0.4633 -0.674,1 -0.847,1.609 -0.173,0.6113 -0.259,1.2543 -0.259,1.9363 v 2.1539 c 0,0.682 0.098,1.3277 0.294,1.9469 0.196,0.6191 0.498,1.1582 0.908,1.623 0.407,0.4629 0.92,0.834 1.541,1.1121 0.622,0.277 1.364,0.4199 2.225,0.4199 0.896,0 1.657,-0.139 2.285,-0.4089 0.628,-0.2692 1.135,-0.636 1.521,-1.0993 0.384,-0.4648 0.667,-1 0.846,-1.6117 0.181,-0.6109 0.272,-1.248 0.272,-1.9121 v -0.9961 c 0,-0.3097 -0.106,-0.5719 -0.318,-0.7867"
       style="fill:#7a1d90;fill-opacity:1;fill-rule:nonzero;stroke:none;stroke-width:0.1"
       id="path174" /></g></svg>
